<svg width="10" height="10" viewBox="0 0 10 10" fill="none" xmlns="http://www.w3.org/2000/svg">
<path d="M9.10569 5.02428C9.10569 7.34935 7.22081 9.23423 4.89574 9.23423C2.57067 9.23423 0.685791 7.34935 0.685791 5.02428C0.685791 2.69921 2.57067 0.814331 4.89574 0.814331C7.22081 0.814331 9.10569 2.69921 9.10569 5.02428Z" fill="#F9D104"/>
<mask id="path-2-outside-1" maskUnits="userSpaceOnUse" x="-0.0932622" y="-0.67482" width="10" height="7" fill="black">
<rect fill="white" x="-0.0932622" y="-0.67482" width="10" height="7"/>
<path d="M8.78921 0.366638L3.09249 5.92126L1.16169 3.71471C1.12767 3.6753 1.07514 3.65715 1.02411 3.66714C0.972998 3.67714 0.931176 3.71364 0.914448 3.76298C0.897719 3.81224 0.908635 3.86668 0.943085 3.90574L2.97546 6.22847C3.00162 6.2581 3.03876 6.27575 3.07825 6.27738H3.08406C3.12205 6.27745 3.15849 6.26264 3.18571 6.23613L8.9925 0.57447C9.04992 0.518401 9.05091 0.426322 8.99477 0.368906C8.9387 0.31149 8.84663 0.310498 8.78921 0.366638V0.366638Z"/>
</mask>
<path d="M8.78921 0.366638L3.09249 5.92126L1.16169 3.71471C1.12767 3.6753 1.07514 3.65715 1.02411 3.66714C0.972998 3.67714 0.931176 3.71364 0.914448 3.76298C0.897719 3.81224 0.908635 3.86668 0.943085 3.90574L2.97546 6.22847C3.00162 6.2581 3.03876 6.27575 3.07825 6.27738H3.08406C3.12205 6.27745 3.15849 6.26264 3.18571 6.23613L8.9925 0.57447C9.04992 0.518401 9.05091 0.426322 8.99477 0.368906C8.9387 0.31149 8.84663 0.310498 8.78921 0.366638V0.366638Z" fill="#1F1C0C"/>
<path d="M8.78921 0.366638L3.09249 5.92126L1.16169 3.71471C1.12767 3.6753 1.07514 3.65715 1.02411 3.66714C0.972998 3.67714 0.931176 3.71364 0.914448 3.76298C0.897719 3.81224 0.908635 3.86668 0.943085 3.90574L2.97546 6.22847C3.00162 6.2581 3.03876 6.27575 3.07825 6.27738H3.08406C3.12205 6.27745 3.15849 6.26264 3.18571 6.23613L8.9925 0.57447C9.04992 0.518401 9.05091 0.426322 8.99477 0.368906C8.9387 0.31149 8.84663 0.310498 8.78921 0.366638V0.366638Z" stroke="#1F1C0C" stroke-width="0.06" mask="url(#path-2-outside-1)"/>
<mask id="path-3-outside-2" maskUnits="userSpaceOnUse" x="-0.963867" y="-0.965088" width="10" height="10" fill="black">
<rect fill="white" x="-0.963867" y="-0.965088" width="10" height="10"/>
<path d="M4.39062 8.74525C5.82942 8.74433 7.17502 8.03336 7.9865 6.84528C8.79798 5.65712 8.97072 4.14509 8.44817 2.8046C8.41889 2.72989 8.33468 2.69303 8.25997 2.72223C8.18533 2.75151 8.14847 2.83572 8.17767 2.91043C8.8846 4.72017 8.21099 6.77716 6.57045 7.81816C4.92997 8.85924 2.78197 8.59285 1.44545 7.18261C0.109005 5.77237 -0.0417656 3.61317 1.08579 2.0309C2.21334 0.448623 4.3035 -0.113701 6.0727 0.689274C6.14528 0.720322 6.22928 0.687786 6.26196 0.61598C6.29464 0.544104 6.26401 0.459326 6.19292 0.425089C4.573 -0.3109 2.66835 0.012473 1.38215 1.24189C0.0959622 2.4713 -0.313039 4.35944 0.349089 6.0109C1.01122 7.66236 2.61136 8.7449 4.39062 8.74525V8.74525Z"/>
</mask>
<path d="M4.39062 8.74525C5.82942 8.74433 7.17502 8.03336 7.9865 6.84528C8.79798 5.65712 8.97072 4.14509 8.44817 2.8046C8.41889 2.72989 8.33468 2.69303 8.25997 2.72223C8.18533 2.75151 8.14847 2.83572 8.17767 2.91043C8.8846 4.72017 8.21099 6.77716 6.57045 7.81816C4.92997 8.85924 2.78197 8.59285 1.44545 7.18261C0.109005 5.77237 -0.0417656 3.61317 1.08579 2.0309C2.21334 0.448623 4.3035 -0.113701 6.0727 0.689274C6.14528 0.720322 6.22928 0.687786 6.26196 0.61598C6.29464 0.544104 6.26401 0.459326 6.19292 0.425089C4.573 -0.3109 2.66835 0.012473 1.38215 1.24189C0.0959622 2.4713 -0.313039 4.35944 0.349089 6.0109C1.01122 7.66236 2.61136 8.7449 4.39062 8.74525V8.74525Z" fill="#1F1C0C"/>
<path d="M4.39062 8.74525C5.82942 8.74433 7.17502 8.03336 7.9865 6.84528C8.79798 5.65712 8.97072 4.14509 8.44817 2.8046C8.41889 2.72989 8.33468 2.69303 8.25997 2.72223C8.18533 2.75151 8.14847 2.83572 8.17767 2.91043C8.8846 4.72017 8.21099 6.77716 6.57045 7.81816C4.92997 8.85924 2.78197 8.59285 1.44545 7.18261C0.109005 5.77237 -0.0417656 3.61317 1.08579 2.0309C2.21334 0.448623 4.3035 -0.113701 6.0727 0.689274C6.14528 0.720322 6.22928 0.687786 6.26196 0.61598C6.29464 0.544104 6.26401 0.459326 6.19292 0.425089C4.573 -0.3109 2.66835 0.012473 1.38215 1.24189C0.0959622 2.4713 -0.313039 4.35944 0.349089 6.0109C1.01122 7.66236 2.61136 8.7449 4.39062 8.74525V8.74525Z" stroke="#1F1C0C" stroke-width="0.06" mask="url(#path-3-outside-2)"/>
</svg>
