<svg width="10" height="10" viewBox="0 0 10 10" fill="none" xmlns="http://www.w3.org/2000/svg">
<path d="M5.18408 9.85474C7.66936 9.85474 9.68408 7.84002 9.68408 5.35474C9.68408 2.86946 7.66936 0.854736 5.18408 0.854736C2.6988 0.854736 0.684082 2.86946 0.684082 5.35474C0.684082 7.84002 2.6988 9.85474 5.18408 9.85474Z" fill="#F9D104"/>
<path d="M4.70877 9.41755C5.64008 9.41755 6.55047 9.14138 7.32483 8.62398C8.09918 8.10657 8.70271 7.37116 9.05911 6.51074C9.41551 5.65033 9.50876 4.70355 9.32707 3.79014C9.14538 2.87673 8.69691 2.0377 8.03838 1.37917C7.37984 0.720636 6.54082 0.272169 5.62741 0.0904799C4.714 -0.0912092 3.76722 0.00204022 2.9068 0.358436C2.04639 0.714832 1.31098 1.31837 0.793571 2.09272C0.276165 2.86707 0 3.77747 0 4.70877C0.00138915 5.95719 0.497937 7.15408 1.3807 8.03684C2.26347 8.91961 3.46035 9.41616 4.70877 9.41755V9.41755ZM4.70877 0.353256C5.57021 0.353256 6.41231 0.608703 7.12857 1.08729C7.84483 1.56588 8.40309 2.24612 8.73275 3.04199C9.0624 3.83786 9.14866 4.71361 8.9806 5.55849C8.81254 6.40338 8.39772 7.17946 7.78859 7.78859C7.17946 8.39772 6.40338 8.81254 5.55849 8.9806C4.7136 9.14866 3.83785 9.06241 3.04199 8.73275C2.24612 8.40309 1.56588 7.84483 1.08729 7.12857C0.608701 6.41231 0.353254 5.57021 0.353254 4.70877C0.354483 3.554 0.813761 2.44687 1.63031 1.63032C2.44686 0.813763 3.55399 0.354485 4.70877 0.353256V0.353256Z" fill="#1F1C0C"/>
<path d="M2.49839 4.88542H4.1599C4.19013 4.97952 4.24404 5.06426 4.31645 5.13153C4.38886 5.1988 4.47735 5.24633 4.57341 5.26956C4.66948 5.29279 4.76991 5.29094 4.86505 5.26419C4.9602 5.23744 5.04687 5.18669 5.11676 5.1168C5.18665 5.04691 5.2374 4.96024 5.26415 4.86509C5.2909 4.76994 5.29275 4.66952 5.26952 4.57345C5.24629 4.47739 5.19876 4.3889 5.13149 4.31649C5.06423 4.24408 4.97948 4.19017 4.88538 4.15994V2.49843C4.88538 2.45159 4.86677 2.40666 4.83365 2.37354C4.80052 2.34041 4.7556 2.3218 4.70875 2.3218C4.66191 2.3218 4.61698 2.34041 4.58386 2.37354C4.55073 2.40666 4.53213 2.45159 4.53213 2.49843V4.15994C4.44509 4.18816 4.36598 4.23661 4.30127 4.30131C4.23657 4.36601 4.18812 4.44513 4.1599 4.53216H2.49839C2.45155 4.53216 2.40662 4.55077 2.3735 4.5839C2.34038 4.61702 2.32177 4.66195 2.32177 4.70879C2.32177 4.75564 2.34038 4.80056 2.3735 4.83368C2.40662 4.86681 2.45155 4.88542 2.49839 4.88542ZM4.70875 4.48523C4.75297 4.48523 4.79619 4.49834 4.83296 4.52291C4.86972 4.54747 4.89837 4.58239 4.91529 4.62324C4.93221 4.66409 4.93664 4.70904 4.92802 4.7524C4.91939 4.79577 4.8981 4.83561 4.86683 4.86687C4.83557 4.89814 4.79573 4.91943 4.75237 4.92805C4.709 4.93668 4.66405 4.93225 4.6232 4.91533C4.58235 4.89841 4.54743 4.86976 4.52287 4.83299C4.4983 4.79623 4.48519 4.75301 4.48519 4.70879C4.48525 4.64952 4.50882 4.59268 4.55073 4.55077C4.59265 4.50886 4.64948 4.48529 4.70875 4.48523V4.48523Z" fill="#1F1C0C"/>
</svg>
